# xmcd CD database file
#
# Track frame offsets:
#	150
#	21473
#	39652
#	57028
#	76054
#	89415
#	103121
#	123904
#	141072
#	172779
#	190069
#	204809
#	221268
#	242996
#
# Disc length: 3567 seconds
#
# Revision: 4
# Processed by: cddbd v1.5.2PL0 Copyright (c) Steve Scherf et al.
# Submitted via: CDex 1.70beta3
#
DISCID=b20ded0e
DTITLE=Billy Joel - Greatest Hits Volume 2 1978-1985
DYEAR=2003
DGENRE=Pop
TTITLE0=My Life
TTITLE1=Big Shot
TTITLE2=Honesty
TTITLE3=You May Be Right
TTITLE4=It's Still Rock and Roll to Me
TTITLE5=She's Got a Way
TTITLE6=Pressure
TTITLE7=Allentown
TTITLE8=Goodnight Saigon
TTITLE9=Tell Her About It
TTITLE10=Uptown Girl
TTITLE11=The Longet Time
TTITLE12=You're Only Human(Second Wind)
TTITLE13=The Night Is Still Young
EXTD=YEAR: 2003
EXTT0=
EXTT1=
EXTT2=
EXTT3=
EXTT4=
EXTT5=
EXTT6=
EXTT7=
EXTT8=
EXTT9=
EXTT10=
EXTT11=
EXTT12=
EXTT13=
PLAYORDER=
